<?xml version="1.0" encoding="utf-8"?>
<!-- Generator: Adobe Illustrator 21.0.0, SVG Export Plug-In . SVG Version: 6.00 Build 0)  -->
<svg version="1.1" id="Layer_1" xmlns="http://www.w3.org/2000/svg" xmlns:xlink="http://www.w3.org/1999/xlink" x="0px" y="0px"
	 viewBox="0 0 500 500" style="enable-background:new 0 0 500 500;" xml:space="preserve">
<style type="text/css">
	.st0{fill:#EBEBEB;}
	.st1{fill:#F3371C;}
	.st2{fill:#263238;}
	.st3{fill:#FFBEA9;}
	.st4{fill:#E4977C;}
	.st5{fill:#455A64;}
	.st6{fill:#E0E0E0;}
	.st7{opacity:0.6;}
	.st8{fill:#FFFFFF;}
	.st9{font-family:'Playball-Regular';}
	.st10{font-size:59.0487px;}
</style>
<g id="freepik--background-simple--inject-49">
	<path class="st0" d="M418.3,103.3l-2.3-3.6c-18.6-30.7-52.2-49.2-87.7-46.9c-4.6,0.3-9.1,0.9-13.6,1.9c-32.3,6.9-60.4,31.3-72,62.6
		c-6.9,18.4-8.8,39.5-21.8,54.1c-16.9,19-45.6,19.6-70.8,18.8s-54-0.1-70.8,18.9c-10.5,12-13.9,29-13,44.9
		c2.3,42.3,31.8,80.2,69.3,99s81.7,20.5,122.7,12.2c57.5-11.6,112.2-43.4,145.1-92.6S444.6,156.4,418.3,103.3z"/>
</g>
<g id="freepik--Plant--inject-49">
	<path class="st1" d="M421,426.8c2.4,1.1,4.2,3.2,5,5.7c0.8,2.5,1,5.1,0.7,7.7c-0.6,5-3.4,10-6.5,14c-4.2-3.7-5.2-10-5.5-13.3
		C414.3,435.7,416.6,426,421,426.8"/>
	<path class="st1" d="M425.1,462.4c-0.6-2.9,0.4-5.9,2.7-7.8c2.2-1.9,5.2-2.8,8.1-2.5c1.4,0,2.7,0.6,3.5,1.6c0.7,1.1,0.7,2.5,0,3.6
		c-0.6,1.1-1.5,2-2.6,2.6C433.1,462.1,429.2,463.6,425.1,462.4"/>
	<path class="st2" d="M419.7,477.7c0-0.3,0.1-0.7,0.1-1c0.1-0.7,0.3-1.6,0.5-2.8c0.5-3.1,1.4-6.1,2.9-8.8c1.5-2.8,3.7-5.1,6.4-6.8
		c0.8-0.5,1.7-0.9,2.6-1.1c0.2-0.1,0.5-0.1,0.8-0.2c0.1,0,0.2,0,0.3,0c-1.2,0.4-2.4,0.9-3.5,1.6c-2.6,1.7-4.7,4-6.2,6.7
		c-1.4,2.7-2.4,5.7-2.9,8.7c-0.3,1.2-0.5,2.1-0.6,2.8C419.9,477.1,419.8,477.4,419.7,477.7z"/>
	<path class="st2" d="M419.9,434.3c0,0.1,0.1,0.3,0.1,0.4c0,0.3,0,0.8,0.1,1.3c0.1,1.1,0.1,2.7,0.2,4.7c0.1,4,0.2,9.5,0.2,15.6
		S420.2,468,420,472c-0.1,2-0.2,3.6-0.2,4.7c0,0.5-0.1,1-0.1,1.3c0,0.2,0,0.3-0.1,0.5c0-0.1,0-0.3,0-0.5c0-0.3,0-0.8,0-1.3
		c0-1.2,0.1-2.8,0.1-4.7c0.1-4,0.2-9.5,0.2-15.6s0-11.6-0.1-15.6c0-2,0-3.6-0.1-4.7c0-0.5,0-1,0-1.3
		C419.8,434.6,419.8,434.4,419.9,434.3z"/>
	<path class="st1" d="M417.8,465.4c-1-6.1-5-11.4-10.5-14.1c-1.4-0.7-3.2-1.1-4.4-0.1s-0.9,2.9-0.3,4.4c2.5,6.2,8.5,10.2,15.1,10.2"
		/>
	<path class="st2" d="M408,456c0.3,0.1,0.6,0.2,0.9,0.4c0.3,0.2,0.7,0.3,1,0.5c0.4,0.2,0.8,0.5,1.3,0.8c0.5,0.3,1,0.7,1.5,1.1
		c0.5,0.4,1,0.9,1.6,1.4c1.1,1.2,2.1,2.4,3,3.8c1.2,2,2,4.2,2.5,6.5c0.1,0.6,0.2,1.2,0.3,1.8c0.1,0.6,0,1.1,0.1,1.5
		c0,0.4,0,0.8,0,1.1c0,0.3,0,0.7-0.1,1c-0.1,0,0.1-1.4-0.2-3.6c-0.1-0.6-0.2-1.2-0.3-1.8c-0.1-0.7-0.3-1.3-0.5-2
		c-0.5-1.5-1.1-3-1.9-4.3c-0.8-1.3-1.8-2.6-2.9-3.8c-0.5-0.5-1-1-1.5-1.4c-0.5-0.4-1-0.8-1.5-1.1C409.2,456.7,407.9,456.1,408,456z"
		/>
</g>
<g id="freepik--Character--inject-49">
	<path class="st1" d="M186.6,127.9c1.2,0,14.8,3.3,18.6,10s5.5,31.4,5.5,31.4s1.1,17.3-1.3,25.7s-10.2,49.2-13,57.5
		c-3.7,10.6-8.9,28.2-8.9,28.2L142.7,249L186.6,127.9z"/>
	<path class="st2" d="M200.8,89.5c-1.9,4.2-1.3,9.1-0.2,13.5s2.8,8.9,2.7,13.5c-0.1,6.8-1.8,16-15.5,11.6
		c-8.4-2.7-0.7,22.1-5.2,29.6c-0.8,1.5-1.9,2.9-3.2,4c-3.4,2.4-8,1-11.9-0.5c-1.2-0.5-2.6-1.1-2.9-2.4c-0.1-0.7,0-1.4,0.2-2
		L185.4,89"/>
	<path class="st3" d="M177.5,142.4c7.9-1.9,10.3-5.8,10.4-12.7l0.1-8.8c0,0,8.7-0.4,10.7-13.4c1.3-8.4,1.7-17,1.3-25.5
		c-0.5-7.8-8.6-21.5-16.3-20.6l-21.3,10.4c-2.3,0.2-4.1,2.3-4.1,4.6l0,0l1.6,50.2"/>
	<path class="st2" d="M195.1,91c0,0.9-0.7,1.6-1.6,1.7c-0.9,0.1-1.6-0.6-1.7-1.5c0,0,0,0,0,0c0-0.9,0.7-1.6,1.6-1.7
		C194.3,89.4,195,90.1,195.1,91C195.1,91,195.1,91,195.1,91z"/>
	<path class="st2" d="M197.8,88c-0.1,0.3-1.6-0.5-3.4-0.1s-2.8,1.6-3,1.4s0-0.6,0.4-1.1c0.6-0.7,1.4-1.2,2.4-1.4
		c0.9-0.2,1.9-0.1,2.7,0.4C197.6,87.4,197.8,87.8,197.8,88z"/>
	<path class="st2" d="M177.9,90.8c0,0.9-0.7,1.6-1.6,1.7c-0.9,0.1-1.7-0.6-1.7-1.5c0,0,0,0,0,0c0-0.9,0.7-1.6,1.6-1.7
		C177.1,89.3,177.9,89.9,177.9,90.8C177.9,90.8,177.9,90.8,177.9,90.8z"/>
	<path class="st2" d="M180.1,89.8c-0.3,0.2-1.3-1.2-3.2-1.8s-3.5,0-3.6-0.3c-0.1-0.1,0.3-0.5,1-0.8c1-0.3,2-0.4,3-0.1
		c1,0.3,1.8,0.9,2.4,1.7C180.1,89.2,180.2,89.7,180.1,89.8z"/>
	<path class="st2" d="M186.7,101.1c0.9-0.3,1.9-0.5,2.9-0.5c0.4,0,0.9-0.1,1-0.4c0-0.5-0.1-0.9-0.3-1.4c-0.4-1.1-0.9-2.3-1.4-3.5
		c-1.9-4.9-3.3-9-3.1-9.1s1.9,3.9,3.8,8.8l1.3,3.5c0.3,0.6,0.4,1.2,0.2,1.8c-0.1,0.3-0.4,0.6-0.8,0.7c-0.3,0.1-0.5,0.1-0.8,0.1
		C188.7,101.2,187.7,101.3,186.7,101.1z"/>
	<path class="st4" d="M188,121c-6.1,0.1-12.1-1.5-17.4-4.6c0,0,4.3,9.3,17.3,8L188,121z"/>
	<path class="st4" d="M186.4,105.5c-0.7-1.2-2-2.1-3.4-2.3c-0.8-0.1-1.6,0.4-2,1.1c-0.4,1-0.3,2.1,0.3,3c0.6,0.9,1.6,1.4,2.7,1.3
		c0.9-0.3,1.6-0.8,2.2-1.4c0.2-0.2,0.4-0.4,0.5-0.7C186.8,106.2,186.7,105.8,186.4,105.5"/>
	<path class="st2" d="M181.5,102.4c0.3,0,0.3,1.9,2,3.3s3.7,1.2,3.7,1.4s-0.5,0.4-1.3,0.4c-1.1,0-2.2-0.4-3.1-1.1
		c-0.8-0.7-1.4-1.7-1.5-2.8C181.1,102.8,181.4,102.4,181.5,102.4z"/>
	<path class="st2" d="M181.6,81.5c-0.2,0.5-2,0.1-4.1,0.1s-3.9,0.4-4.1,0c-0.1-0.2,0.2-0.7,1-1c2-1,4.2-1,6.2-0.1
		C181.4,80.9,181.7,81.3,181.6,81.5z"/>
	<path class="st2" d="M198.3,84c-0.4,0.4-1.9,0-3.8,0s-3.4,0.3-3.8-0.2c-0.1-0.2,0.1-0.6,0.8-1c1.9-0.9,4.2-0.9,6.1,0.2
		C198.3,83.4,198.5,83.8,198.3,84z"/>
	<path class="st2" d="M130.8,131.7c2.8-4.6,11.9-15.5,15.2-23c2.3-5.4,4-24.2,8.9-33.9s10.7-13.6,16.4-15.2
		c4.4-1.3,9.1-0.2,12.5,2.8c2.6,2.3,3.4,9,3.4,9s-13.7,3.1-18.3,10.8c-5.3,9-6.6,13.5-6.6,13.5l-1.7,4.9c0,0,1.6,9.5,2.2,14.2
		s-0.4,9-4.2,11l-7.8,5.5c0,0,4.2,45.4,3.8,45.7c-1.2,0.9-10.9-1.1-19.7-3.1c-1.7-0.4-2.6-16.4-2.6-16.4l-2.6,15l-6.6-1.5
		C123.1,171,125,141,130.8,131.7z"/>
	<path class="st2" d="M186.9,71.4c5.2-0.3,9.9,3,11.4,8c1.3,4,2.3,15.5,2.3,15.5s1.1-9.2,0.7-14.4s-3-11.8-7-15.5s-7.2-5.2-14.2-4.8
		c1.8,0.9,3.4,2.3,4.6,3.9C185.6,65.4,185.8,66.4,186.9,71.4z"/>
	<path class="st3" d="M162.4,96.3c-0.1-2.2-1.9-3.9-4.1-3.8c-0.6,0-1.1,0.2-1.6,0.4c-1.4,0.8-2.4,2.4-2.3,5.4
		c0.3,8.1,8.4,6.1,8.4,5.9S162.6,99.7,162.4,96.3z"/>
	<path class="st4" d="M160.2,101.3c0,0-0.1,0.1-0.4,0.2c-0.3,0.2-0.7,0.2-1.1,0.1c-0.9-0.3-1.6-1.6-1.8-3.1c0-0.7,0.1-1.4,0.3-2
		c0.1-0.5,0.5-0.9,1-1.1c0.3-0.1,0.7,0,0.9,0.3c0.1,0.2,0.1,0.4,0.1,0.4s0.2-0.1,0.1-0.5c-0.1-0.2-0.2-0.4-0.3-0.5
		c-0.2-0.2-0.5-0.2-0.8-0.2c-0.7,0.2-1.2,0.7-1.4,1.3c-0.3,0.7-0.5,1.5-0.4,2.3c0.1,1.6,1,3.1,2.2,3.4c0.4,0.1,0.9,0,1.3-0.3
		C160.2,101.5,160.2,101.3,160.2,101.3z"/>
	<path class="st2" d="M158.2,70.1c-5,7-8.4,15.1-9.9,23.6c-1,5.3-1.3,11.1-4.5,15.4c-1.7,2.3-4.1,4-5.4,6.6
		c-1.4,2.8-1.2,6.2-2.8,8.8c-1.7,2.9-5.2,4.3-7.5,6.8c-4.3,4.7-3.3,12-5.1,18.1c-1.1,3.9-3.4,7.4-6.5,10c-1.1,0.9-2.4,2.1-2,3.4
		c0.3,0.8,1,1.4,1.8,1.7c2.4,1.3,4.7,6,7.4,6.6c0.6-14.6,7.6-32.1,15.3-44.5c4.4-7.1,9.2-14.2,10.9-22.3c1.1-5.4,0.9-10.9,1.5-16.4
		s2.3-11.1,6.4-14.7"/>
	<path class="st2" d="M155.7,106.5c-0.1,0.1-0.8-0.2-1.8-1.3c-2.3-2.8-3-6.6-1.8-10.1c0.6-1.6,1.4-3,2.5-4.3
		c1.1-1.3,2.4-2.6,3.7-3.8c1.4-1.2,2.8-2.4,4.4-3.5c2.9-2.1,6-4,9.3-5.5c3-1.4,5.8-2.3,7.9-3.4c1.7-0.8,3.3-1.8,4.7-3
		c1-0.9,1.4-1.5,1.6-1.4s0,0.9-0.8,2.1c-1.2,1.6-2.8,3-4.6,4c-2.2,1.3-4.9,2.4-7.7,3.9c-3.1,1.6-6,3.4-8.8,5.4
		c-1.5,1.1-2.9,2.2-4.2,3.3c-1.3,1-2.4,2.2-3.6,3.4c-1,1-1.7,2.2-2.3,3.5c-0.5,1.1-0.7,2.3-0.7,3.5c0,1.8,0.5,3.6,1.3,5.2
		C155.4,105.7,155.9,106.3,155.7,106.5z"/>
	<path class="st5" d="M159,106.8c-0.1,0-0.3-0.1-0.4-0.2c-0.4-0.2-0.7-0.4-1.1-0.7c-1.2-1-2.2-2.2-2.9-3.7c-1-2.1-1.3-4.5-0.7-6.8
		c0.9-2.7,2.6-5.1,4.9-6.9c2.2-1.7,4.5-3.4,6.9-4.8c2.2-1.4,4.2-2.5,5.9-3.5s3.1-1.6,4.1-2.1c0.5-0.2,0.9-0.4,1.1-0.5
		c0.1-0.1,0.3-0.1,0.4-0.2c-0.5,0.3-1,0.6-1.5,0.8c-0.9,0.5-2.3,1.3-4,2.2s-3.7,2.2-5.9,3.6c-2.4,1.5-4.6,3.1-6.8,4.8
		c-2.2,1.7-3.9,4-4.7,6.6c-0.6,2.2-0.4,4.5,0.6,6.6c0.6,1.4,1.5,2.6,2.6,3.7C158.5,106.5,159.1,106.8,159,106.8z"/>
	<path class="st5" d="M175.1,59c0.9-0.2,1.8-0.1,2.7,0.2c2.1,0.6,4.1,1.6,5.7,3c1.6,1.5,2.8,3.4,3.3,5.5c0.1,0.6,0.2,1.3,0.2,1.9
		c0,0.2,0,0.5-0.1,0.7c-0.1,0-0.1-1-0.5-2.6c-0.6-2-1.7-3.8-3.3-5.2c-1.6-1.4-3.5-2.4-5.5-3C176.9,59.3,176,59.1,175.1,59z"/>
	<path class="st6" d="M154.6,103.2c0,0-0.4,0.4-0.9,1.1c-0.8,1.1-1.3,2.3-1.5,3.6c-0.3,2,0.2,3.9,1.3,5.6c1.3,2,3.6,3.2,6.1,3
		c1.2-0.1,2.4-0.7,3.2-1.5c0.8-0.8,1.3-1.9,1.5-3c0.4-1.9,0.3-3.9-0.5-5.7c-0.6-1.2-1.5-2.2-2.8-2.7c-0.5-0.2-0.9-0.3-1.4-0.4
		c0.1,0,0.3,0,0.4,0c0.4,0,0.7,0.1,1.1,0.2c1.3,0.5,2.4,1.5,3,2.7c0.9,1.9,1.1,4,0.6,6c-0.2,1.2-0.8,2.3-1.6,3.2
		c-0.9,1-2.2,1.6-3.5,1.7c-1.3,0.2-2.7-0.1-3.8-0.8c-1.1-0.6-2-1.4-2.7-2.4c-1.2-1.7-1.6-3.8-1.3-5.9c0.2-1.4,0.8-2.6,1.7-3.7
		c0.2-0.3,0.5-0.6,0.8-0.8C154.3,103.4,154.5,103.3,154.6,103.2z"/>
	<polygon class="st3" points="122.8,455.7 128.5,431.1 108.5,427.7 108.5,445.8 114.1,454 	"/>
	<path class="st1" d="M124.7,454.5l-0.7,1.1c0,0,13.5,18.8,11.5,22.3l-35.8-23l8.2-11.6C111.5,449.3,117.7,453.4,124.7,454.5z"/>
	<g class="st7">
		<path class="st8" d="M109,449.5c-0.8-0.2-1.7,0.2-2.1,1c-0.3,0.8,0.2,1.8,1,2.1c0.9,0.3,1.9-0.2,2.2-1.1c0.2-0.9-0.4-1.8-1.3-2"/>
	</g>
	<g class="st7">
		<path class="st8" d="M99.7,454.9l2-2.8l33.6,23.1c0,0,1.1,1.7,0.3,2.7L99.7,454.9z"/>
	</g>
	<path class="st2" d="M124,455.8c-0.1,0.2-1-0.3-2.3-0.3s-2.2,0.5-2.3,0.3s0.8-1,2.3-1S124.2,455.7,124,455.8z"/>
	<path class="st2" d="M126.8,459.8c-0.1,0.2-1,0-2.1,0.4s-1.7,1-1.9,0.9s0.4-1.2,1.7-1.6S126.9,459.6,126.8,459.8z"/>
	<path class="st2" d="M126,465.6c-0.2-0.1,0.1-1.1,1.2-1.8s2.1-0.5,2.1-0.3s-0.9,0.4-1.7,0.9S126.2,465.7,126,465.6z"/>
	<polygon class="st3" points="73.7,299.7 91.6,302.1 84.7,321.9 65.4,315.3 64.3,308 	"/>
	<path class="st1" d="M67.3,316.6l-1.1-0.5c0,0-15.2,15.1-18.7,13.8l15.7-36.3l11.8,5.7C70.1,303.8,67.3,310.1,67.3,316.6z"/>
	<g class="st7">
		<path class="st8" d="M69.7,301.5c0.1-0.8-0.4-1.6-1.3-1.8c-0.8-0.1-1.6,0.4-1.8,1.3c-0.1,0.9,0.5,1.6,1.3,1.8
			c0.8,0,1.8-0.7,1.7-1.5"/>
	</g>
	<g class="st7">
		<path class="st8" d="M63.3,293.8l2.9,1.4L50,329.4c0,0-1.4,1.3-2.5,0.6L63.3,293.8z"/>
	</g>
	<path class="st2" d="M66.1,316.3c-0.2-0.1,0.1-1-0.1-2.1s-0.7-1.9-0.6-2s1,0.6,1.3,1.9S66.2,316.4,66.1,316.3z"/>
	<path class="st2" d="M62.9,319.4c-0.2,0-0.2-0.9-0.6-1.9s-1.2-1.4-1.1-1.6s1.1,0.1,1.7,1.3S63,319.5,62.9,319.4z"/>
	<path class="st2" d="M57.4,319.6c0-0.2,1,0,1.8,0.8s0.8,1.9,0.6,1.9s-0.5-0.7-1.1-1.4S57.3,319.8,57.4,319.6z"/>
	<path class="st2" d="M172.3,280.7c-1.6,0.8-21.6,78.1-27.9,81.3l-12.8,62.8c0.8,1.2,1.1,2.7,0.9,4.1c-0.3,2.8-1.5,3.2-1.5,3.2
		s-18.4,2.3-25.9-3c0,0,0.9-5.5,1.3-6s2.2-50.3,6.7-61.9s10.5-48.4,9.9-55.8s-2.6-24.7-2.2-30.2c0.4-3.8,1.2-7.5,2.3-11L172.3,280.7
		z"/>
	<path class="st2" d="M180.2,283.9c0,0-6.8,46.6-12.7,54.2s-13.9,7.8-15.8,8.1s-71-25.2-71-25.2s-1.1-18.8,1.2-21.6
		c0,0,6.2,0.3,7.6,2.3l35.9,5l13.2-40.1L180.2,283.9z"/>
	<path class="st5" d="M168.4,283.8c0,0.3-0.1,0.5-0.1,0.8c-0.1,0.6-0.3,1.3-0.5,2.3c-0.5,2-1.2,4.9-2,8.4l-6.9,27.5
		c-2.7,10.8-5.4,20.5-8.2,27.2c-1.3,3.4-2.6,6.1-3.5,7.9c-0.4,0.9-0.9,1.6-1.1,2.1c-0.1,0.2-0.3,0.5-0.4,0.7
		c0.1-0.3,0.2-0.5,0.3-0.8c0.2-0.5,0.6-1.2,1-2.1c0.9-1.8,2-4.5,3.4-7.9c2.6-6.8,5.4-16.4,8-27.2l7-27.5c0.9-3.5,1.7-6.3,2.2-8.3
		c0.3-0.9,0.5-1.7,0.6-2.3C168.2,284.3,168.3,284,168.4,283.8z"/>
	<path class="st5" d="M120.9,273.9c0,0,0,0.3-0.1,0.7c-0.1,0.7-0.1,1.3-0.1,2c0,1.8,0.2,4.3,0.5,7.4s0.7,6.9,1,11s1,8.7,1,13.5
		c0.1,9.7-2.1,18.2-3.4,24.4c-0.7,3-1.2,5.5-1.6,7.3l-0.4,2c0,0.2-0.1,0.5-0.2,0.7c0-0.2,0-0.5,0.1-0.7c0.1-0.5,0.2-1.2,0.3-2
		c0.3-1.7,0.8-4.2,1.4-7.3c1.2-6.1,3.3-14.7,3.2-24.3c0-4.8-0.7-9.3-1-13.5s-0.7-7.9-0.9-11s-0.3-5.7-0.3-7.5c0-0.7,0.1-1.3,0.2-2
		C120.7,274.4,120.8,274.2,120.9,273.9z"/>
	<path class="st5" d="M88.8,301.3c0.1,0-0.3,1.2-0.9,3.1c-1.4,4.9-2.2,10.1-2.2,15.2c0.1,1.1,0.1,2.1,0,3.2
		c-0.1-0.3-0.1-0.6-0.2-0.9c-0.1-0.5-0.1-1.4-0.2-2.4c-0.2-5.2,0.6-10.4,2.2-15.3c0.3-0.9,0.6-1.7,0.8-2.2S88.8,301.3,88.8,301.3z"
		/>
	<path class="st5" d="M70.2,318.5c0,0.1-0.1,0.3-0.2,0.3s-0.2-0.1-0.2-0.3s0.1-0.3,0.2-0.3C70.1,318.2,70.2,318.3,70.2,318.5z"/>
	<path class="st5" d="M106.9,422.1c1.2,0.1,2.4,0.3,3.6,0.5c2.2,0.4,5.3,0.8,8.8,1.1s6.6,0.5,8.8,0.6c1.2,0,2.5,0.1,3.7,0.2
		c-0.3,0.1-0.7,0.1-1,0.1c-0.6,0-1.6,0-2.7,0c-2.3,0-5.4-0.1-8.9-0.5s-6.6-0.9-8.8-1.3c-1.1-0.2-2-0.4-2.6-0.6
		C107.5,422.3,107.2,422.2,106.9,422.1z"/>
	<path class="st1" d="M178.6,287.7c0.2-0.1,13.1,0,13.1,0s9.7-47.1,10.8-61.5s-23.6,6.7-23.6,6.7L178.6,287.7z"/>
	<path class="st1" d="M161.2,123.7c0,0,12.5,0,19.9,16.4c0,0,22.2,38.7,22.7,55.3c0,0-0.3,24.5-4.4,39s-16,52.8-16,52.8
		s-37.2-3.2-44.7-8.6s-24-4.6-24-4.6s10.1-30.7,22.5-49.3s7.5-51.7,7.5-51.7S141.2,123.8,161.2,123.7z"/>
	<path class="st2" d="M179,286.7c0.2,0,0.4,0,0.6,0c0.4,0,1,0,1.7,0c1.5,0,3.8-0.1,6.6-0.4l-0.1,0.1c2.6-9.1,6.9-24.6,10.4-42.4
		c2.6-12.1,4.3-24.4,5.2-36.8c0.3-4.8,0.3-8.6,0.2-11.3c-0.1-1.3-0.1-2.3-0.1-3.1c0-0.3,0-0.6,0-0.8c0-0.1,0-0.2,0-0.3
		c0,0.1,0,0.2,0,0.3c0,0.2,0,0.5,0.1,0.8c0.1,0.7,0.1,1.8,0.2,3.1c0.1,2.7,0.2,6.5,0,11.3c-0.8,12.4-2.5,24.7-5.1,36.9
		c-3.6,17.9-8,33.4-10.7,42.4v0.1h0c-2.2,0.2-4.4,0.3-6.6,0.2c-0.8,0-1.4-0.1-1.8-0.1C179.4,286.8,179.2,286.7,179,286.7z"/>
	<path class="st6" d="M187.9,130.7c0.1-1.4,13.8,20.1,17.4,42.8c1.3,8.1-1.8,18.3-1.8,18.3l-25.7-57.7
		C177.8,134.1,187.2,143.4,187.9,130.7z"/>
	<path class="st2" d="M169.1,126.1c1.1,0.8,2.1,1.7,3,2.7c1.1,1.2,2,2.5,2.6,3.9c0.8,1.7,1.4,3.6,2.3,5.8v0.1c0.1,2,0.4,3.9,1.1,5.8
		c0.8,2.1,1.7,4.2,2.8,6.1c2.3,4.1,4.8,8.7,7.1,13.5c4.5,9.1,8.5,18.4,12,27.9c1.3,3.6,2.3,6.6,3,8.7l0.7,2.4
		c0.1,0.3,0.2,0.6,0.2,0.9c0,0-0.1-0.3-0.3-0.8s-0.5-1.4-0.8-2.4c-0.7-2-1.8-5-3.1-8.6c-2.8-7.3-6.8-17.2-12.1-27.8
		c-2.4-4.8-4.8-9.3-7.1-13.5c-1.1-2-2-4.1-2.8-6.2c-0.7-1.9-1-3.9-1.1-5.9v0.1c-0.8-2.1-1.4-4.1-2.2-5.8c-0.6-1.4-1.5-2.7-2.5-3.9
		c-0.7-0.7-1.3-1.4-2.1-2.1l-0.6-0.5C169.2,126.2,169.1,126.1,169.1,126.1z"/>
	<path class="st2" d="M186.4,212c0,0,0.2,0,0.5,0.1c0.4,0.3,0.8,0.7,1,1.1c0.4,0.7,0.4,1.6,0,2.3c-0.8,1.2-2.4,1.6-3.6,0.9
		c-0.5-0.3-0.9-0.8-1.1-1.3c-0.2-0.8,0-1.6,0.5-2.3c0.3-0.4,0.8-0.7,1.3-0.8c0.4-0.1,0.6,0,0.6,0c-0.6,0.2-1.1,0.6-1.5,1.1
		c-0.4,0.6-0.5,1.3-0.3,1.9c0.3,0.8,1,1.3,1.8,1.3c0.8,0.1,1.6-0.3,2-0.9c0.3-0.6,0.3-1.3,0.1-1.9C187.4,212.9,187,212.3,186.4,212z
		"/>
	<path class="st2" d="M154.1,215.8c0,0-0.6-0.2-1.8-0.6c-0.7-0.2-1.4-0.4-2.1-0.6c-0.9-0.2-1.9-0.2-2.8,0.1c-1.1,0.3-2,1.1-2.6,2.1
		c-0.6,1.2-1.2,2.4-1.6,3.7l-3.5,8.7c-0.3,0.8-0.7,1.6-1,2.4l-0.3-0.4c5.1-0.1,10.2,1,14.8,3.4c1.3,0.7,2.6,1.5,3.9,2.4
		c0.4,0.3,0.7,0.6,1,0.8s0.3,0.3,0.3,0.3c-0.5-0.3-0.9-0.6-1.4-0.9c-1.2-0.8-2.5-1.6-3.9-2.3c-4.5-2.2-9.6-3.4-14.6-3.2h-0.4
		l0.1-0.4l1-2.4c1.2-3.1,2.4-6,3.5-8.7c0.5-1.3,1-2.5,1.7-3.8c0.3-0.5,0.8-1,1.3-1.4c0.5-0.4,1-0.6,1.6-0.8c1-0.2,2-0.2,3,0
		c0.7,0.1,1.4,0.4,2.1,0.6c0.6,0.2,1,0.4,1.3,0.6C153.9,215.6,154,215.7,154.1,215.8z"/>
	<path class="st2" d="M203.8,204.5c0,0,0-0.1,0-0.4l0.1-1.1c0.1-1,0.4-2.3,0.6-4c0.6-3.5,1.4-8.4,2.3-14.3l0,0
		c0.1-3,0.3-6.2,0.3-9.7c0-1.8,0-3.5-0.2-5.3c-0.1-0.9-0.1-1.8-0.3-2.7s-0.3-1.8-0.4-2.8c-1-5.2-2.5-10.2-4.7-15
		c-1.7-3.9-3.8-7.7-6.1-11.2c-1.6-2.4-3.4-4.7-5.4-6.8c-0.7-0.8-1.3-1.3-1.6-1.7c-0.2-0.2-0.4-0.4-0.6-0.6c0.2,0.2,0.4,0.3,0.6,0.5
		c0.4,0.4,1,0.9,1.7,1.6c2,2.1,3.8,4.4,5.5,6.8c5.4,8,9.2,16.9,11,26.4c0.2,0.9,0.3,1.9,0.4,2.8s0.2,1.9,0.3,2.8
		c0.2,1.8,0.2,3.6,0.2,5.4c-0.1,3.5-0.2,6.7-0.4,9.7l0,0l0,0c-1,5.9-1.9,10.8-2.5,14.3c-0.3,1.7-0.6,3-0.7,4
		c-0.1,0.4-0.1,0.8-0.2,1.1C203.8,204.2,203.8,204.4,203.8,204.5z"/>
	<path class="st1" d="M161.1,126.1c3.5,0,12.5,6.8,13,24.4c0.5,17.1-0.6,48-0.6,48l14.2,64c0.4,0.6-13.8,8.2-20.1,6.5
		c0,0-16.4-57.8-17.8-64.9s-4.4-40.3-3.3-47.8S145.9,126.1,161.1,126.1z"/>
	<path class="st6" d="M169.3,262.1c-0.7-0.5-1.6-0.3-2,0.3c-0.5,0.7-0.3,1.6,0.3,2c0.7,0.5,1.6,0.3,2-0.3c0.4-0.5,0.4-1.3-0.1-1.8"
		/>
	<path class="st2" d="M169.5,262.3c0,0,0.1,0,0.3,0.2c0.2,0.3,0.3,0.7,0.2,1c-0.1,0.5-0.4,1-0.8,1.3c-0.9,0.4-1.9,0-2.2-0.9
		c-0.2-0.4-0.2-0.8-0.1-1.2c0.2-0.5,0.6-0.9,1.2-1c0.3-0.1,0.7-0.1,1,0.1c0.2,0.1,0.3,0.2,0.3,0.2s-0.5-0.2-1.1,0
		c-0.4,0.1-0.7,0.4-0.8,0.8c-0.1,0.4,0,0.9,0.4,1.2c0.3,0.3,0.8,0.4,1.3,0.2c0.3-0.2,0.6-0.5,0.7-0.9
		C169.7,263,169.7,262.7,169.5,262.3z"/>
	<path class="st6" d="M167.9,258.3c-0.6-0.3-1.3,0-1.6,0.6s0,1.3,0.6,1.6c0.4,0.2,0.9,0.1,1.2-0.1c0.5-0.5,0.6-1.3,0.1-1.8
		C168.2,258.5,168,258.4,167.9,258.3"/>
	<path class="st2" d="M167.9,258.3c0,0,0.1,0,0.3,0.1c0.3,0.2,0.4,0.4,0.5,0.7c0.1,0.5,0,0.9-0.3,1.3c-0.6,0.6-1.5,0.6-2.1,0
		c-0.3-0.3-0.4-0.7-0.4-1.1c0.1-0.5,0.4-0.9,0.8-1.1c0.3-0.1,0.6-0.2,0.9-0.1C167.8,258.2,167.9,258.3,167.9,258.3
		c0,0-0.4-0.1-1,0.3c-0.3,0.2-0.5,0.5-0.5,0.8c0,0.6,0.5,1,1,1c0.2,0,0.5-0.1,0.6-0.2c0.2-0.3,0.3-0.6,0.3-0.9
		C168.3,258.5,167.8,258.4,167.9,258.3z"/>
	<path class="st6" d="M166.9,254.4c-0.6-0.3-1.3,0-1.6,0.6s0,1.3,0.6,1.6c0.4,0.2,0.9,0.1,1.2-0.1c0.5-0.5,0.6-1.3,0.1-1.8
		C167.2,254.6,167,254.5,166.9,254.4"/>
	<path class="st2" d="M166.9,254.4c0,0,0.1,0,0.3,0.1c0.3,0.2,0.4,0.4,0.5,0.7c0.1,0.5,0,0.9-0.3,1.3c-0.6,0.6-1.5,0.6-2.1,0
		c-0.3-0.3-0.4-0.7-0.4-1.1c0.1-0.5,0.4-0.9,0.8-1.1c0.3-0.1,0.6-0.2,0.9-0.1C166.8,254.3,166.9,254.4,166.9,254.4
		c0,0-0.4-0.1-1,0.3c-0.3,0.2-0.5,0.5-0.5,0.8c0,0.4,0.2,0.7,0.6,0.9c0.4,0.2,0.8,0.1,1.1-0.1c0.2-0.3,0.3-0.6,0.3-0.9
		C167.3,254.7,166.9,254.5,166.9,254.4z"/>
	<path class="st2" d="M146.7,154.6c0,0,0,0.2,0,0.6s0,1,0,1.8c0,1.5,0.1,3.8,0.2,6.7c0.3,5.9,0.8,14.3,1.7,24.8
		c0.2,2.6,0.4,5.4,0.7,8.2c0.1,1.4,0.3,2.9,0.4,4.4c0,0.4,0.1,0.8,0.1,1.1l0.1,0.6l0.1,0.5c0.1,0.7,0.4,1.5,0.5,2.2
		c1.5,6,3.3,12.4,5.2,19.2l12.2,44.1l-0.2-0.2c2.5,0.2,5.1,0,7.5-0.7c4.4-1.2,8.6-3.2,12.4-5.8l-0.1,0.3c-5.3-24-10.1-45.7-14-63.1
		l0,0c0.6-14.1,1.1-25.6,1.4-33.6c0.2-4,0.3-7.1,0.4-9.2c0.1-1,0.1-1.8,0.1-2.4c0-0.5,0.1-0.8,0.1-0.8s0,0.3,0,0.8s0,1.4-0.1,2.4
		c-0.1,2.1-0.2,5.2-0.3,9.2c-0.3,8-0.7,19.5-1.2,33.6v-0.1l14.1,63.1v0.2l-0.1,0.1c-3.8,2.7-8.1,4.7-12.6,5.9
		c-2.5,0.7-5.1,0.9-7.7,0.7h-0.2l-0.1-0.2c-4.3-15.7-8.5-30.6-12.2-44.1c-1.8-6.8-3.6-13.2-5.1-19.2c-0.2-0.8-0.4-1.5-0.5-2.3
		l-0.1-0.6l-0.1-0.6l-0.1-1.1c-0.1-1.5-0.3-3-0.4-4.4c-0.2-2.9-0.4-5.6-0.6-8.3c-0.8-10.5-1.3-19-1.5-24.8c-0.1-2.9-0.1-5.2-0.1-6.7
		c0-0.8,0.1-1.4,0.1-1.8S146.7,154.6,146.7,154.6z"/>
	<path class="st3" d="M198.3,273c0-0.3-0.1-0.6-0.2-0.9v0l0,0c-0.2-0.7-0.6-1.3-1-1.9c-1.9-2.5-11.5-6.3-12-6.1l-9,3.9
		c0,0,0.2,0.3,1.8,2.6c0.2,0.4,0.5,0.6,0.9,0.8l0,0c0,0,13,1.3,14.6,3.1s-1.6,6.5-1.6,6.5c-0.6,1.1-1.1,2.3-1.2,3.5
		c-0.1,0.4,0,0.9,0.3,1.2c0.5,0.4,1.1,0,1.6-0.4l4.4-3.5c0.6-0.4,1.2-1,1.6-1.7c0.3-0.6,0.5-1.2,0.5-1.8
		C199.1,276.6,198.8,274.7,198.3,273z"/>
</g>
<circle class="st2" cx="332.9" cy="466.7" r="11.6"/>
<circle class="st6" cx="332.9" cy="466.7" r="6.3"/>
<path class="st5" d="M352.9,447.9v7.7l-18,14.5c-0.8,0.6-1.8,1-2.8,1.2c-1.3,0.1-2.6-0.6-2.6-2.6c0-3.8,4.7-14.7,4.7-14.7h3.8v-6
	L352.9,447.9z"/>
<path class="st2" d="M331.9,467.7c0,0-0.2-0.5,0.3-1c0.3-0.3,0.8-0.3,1.1-0.2c0.5,0.2,0.8,0.6,0.9,1.2c0,0.5-0.3,1-0.9,1.2
	c-0.4,0.1-0.8,0-1.1-0.2C331.7,468.2,331.9,467.7,331.9,467.7c0,0,0.1,0.4,0.5,0.7c0.2,0.1,0.5,0.2,0.8,0.1c0.3-0.1,0.5-0.4,0.5-0.7
	c0-0.3-0.2-0.6-0.5-0.7c-0.2-0.1-0.5-0.1-0.8,0.1C332,467.4,332,467.8,331.9,467.7z"/>
<path class="st2" d="M334.3,454c0.9-0.1,1.8-0.2,2.7-0.2c1.7,0,4,0,6.6,0l6.6,0.2c0.9,0,1.8,0,2.7,0.2c-0.9,0.1-1.8,0.2-2.7,0.2
	c-1.7,0-4,0-6.6-0.1l-6.6-0.2C336.1,454.2,335.2,454.2,334.3,454z"/>
<circle class="st2" cx="192.5" cy="466.9" r="11.6"/>
<circle class="st6" cx="192.5" cy="466.9" r="6.3"/>
<path class="st5" d="M212.5,445.8v9.9l-18,14.5c-0.8,0.6-1.8,1-2.8,1.2c-1.3,0.1-2.6-0.6-2.6-2.6c0-3.8,4.7-14.7,4.7-14.7h3.8v-8.3
	H212.5z"/>
<path class="st2" d="M191.4,467.9c0,0-0.2-0.5,0.3-1c0.3-0.3,0.8-0.4,1.1-0.2c0.6,0.2,1,0.9,0.8,1.5c-0.1,0.4-0.4,0.7-0.8,0.8
	c-0.4,0.1-0.8,0.1-1.1-0.2C191.2,468.3,191.4,467.8,191.4,467.9c0.1,0,0.1,0.4,0.5,0.7c0.2,0.1,0.5,0.2,0.8,0.1
	c0.4-0.2,0.6-0.6,0.4-1c-0.1-0.2-0.2-0.4-0.4-0.4c-0.2-0.1-0.5-0.1-0.8,0.1C191.6,467.5,191.5,467.9,191.4,467.9z"/>
<path class="st2" d="M193.9,454.1c0.9-0.1,1.8-0.2,2.7-0.2c1.7,0,4,0,6.6,0.1l6.6,0.2c0.9,0,1.8,0,2.7,0.2c-0.9,0.1-1.8,0.2-2.7,0.2
	c-1.7,0-4,0-6.6-0.1l-6.6-0.2C195.7,454.3,194.7,454.2,193.9,454.1z"/>
<path class="st5" d="M247.6,393.9c-3.5,0-6.5-2.2-7.7-5.5l-33.8-99.1l179.3,29l-4.1,60.5c-0.3,3.8-3.2,6.7-7,7l-126.2,8.1
	L247.6,393.9z M209.1,291.8l32.7,96c0.9,2.6,3.4,4.3,6.2,4.1l126.2-8.1c2.7-0.2,4.9-2.4,5.1-5.1l4-58.7L209.1,291.8z"/>
<polygon class="st5" points="214.3,312.6 206.8,306.9 199.3,285.4 192.9,281.6 193.9,279.9 201,284 208.4,305.7 215.5,311 "/>
<rect x="297.7" y="234.9" transform="matrix(0.1359 -0.9907 0.9907 0.1359 -59.4719 572.8486)" class="st5" width="2" height="171.2"/>
<rect x="302.4" y="263.1" transform="matrix(5.913214e-02 -0.9983 0.9983 5.913214e-02 -56.7336 625.4564)" class="st5" width="2" height="159.5"/>
<rect x="233.7" y="364.2" transform="matrix(0.9997 -2.635142e-02 2.635142e-02 0.9997 -9.5163 8.2283)" class="st5" width="147.5" height="2"/>
<rect x="240.1" y="380.7" transform="matrix(0.9988 -4.832679e-02 4.832679e-02 0.9988 -18.0858 15.439)" class="st5" width="140.3" height="2"/>
<path class="st5" d="M367.9,384l-2-0.2c1.9-22.3,3.1-45,3.7-67.4l2,0.1C371,338.9,369.8,361.6,367.9,384z"/>
<path class="st5" d="M356.4,385.1h-2c0-0.5,0.3-47.4,0.9-69.7l2,0.1C356.7,337.7,356.4,384.6,356.4,385.1z"/>
<rect x="341.7" y="311.8" transform="matrix(0.9997 -2.635142e-02 2.635142e-02 0.9997 -9.0657 9.1524)" class="st5" width="2" height="73.6"/>
<rect x="326.7" y="311.6" transform="matrix(0.9976 -6.982913e-02 6.982913e-02 0.9976 -23.6686 23.7406)" class="st5" width="2" height="77.6"/>
<rect x="309.7" y="305.6" transform="matrix(0.9911 -0.1331 0.1331 0.9911 -43.4228 44.4438)" class="st5" width="2" height="82.8"/>
<rect x="290.4" y="301.2" transform="matrix(0.983 -0.1836 0.1836 0.983 -58.4949 59.3762)" class="st5" width="2" height="88.8"/>
<rect x="267.9" y="297.1" transform="matrix(0.9694 -0.2456 0.2456 0.9694 -76.3616 76.6163)" class="st5" width="2" height="94.5"/>
<rect x="240.6" y="290.7" transform="matrix(0.951 -0.3092 0.3092 0.951 -94.7812 91.6078)" class="st5" width="2" height="108.4"/>
<path class="st5" d="M359,449.7L359,449.7L195.5,447c-0.7,0-1.3-0.3-1.8-0.8c-0.5-0.5-0.7-1.1-0.7-1.8c0.1-2.9,0.5-17.7,1.6-21
	c0.4-1.2,1.1-3.1,28.2-16.4c2.7-1.3,26.4-12.9,29.7-13.1s33.6-1.5,34.8-1.5c1.4-0.1,2.5,1,2.6,2.4c0.1,1.4-1,2.5-2.4,2.6
	c-0.3,0-30.9,1.3-34.7,1.5c-4.3,0.9-49,22.4-53.7,26.5c-0.5,2.1-1,9.5-1.2,16.6l161,2.6c1.4,0,2.5,1.1,2.5,2.5
	S360.5,449.6,359,449.7L359,449.7z"/>
<path class="st5" d="M286.9,445.5l-20.8-0.5c-3.9-0.2-6.9-1.4-8.7-3.5s-2.6-4.7-2.4-8.2c0.2-3.2,1.3-6.3,3-8.9l20.1-29.7l1.7,1.1
	l-20.1,29.7c-1.6,2.4-2.5,5.1-2.7,8c-0.2,2.9,0.5,5.1,1.9,6.7s4,2.6,7.3,2.8l20.7,0.5L286.9,445.5z"/>
<path class="st5" d="M281.2,395.7c-16.7-30.1-60.6-108.9-62.9-111.4c-1.3-1.2-12-5-18.5-7l0.6-1.9c1.7,0.6,17.1,5.6,19.2,7.5
	s53,93.6,63.2,111.9L281.2,395.7z"/>
<path class="st5" d="M204.5,276.9l-11,6.7c0,0-12.7-5.8-13.8-7.1s-1.4-6.4,3-7.4S204.5,276.9,204.5,276.9z"/>
<path class="st2" d="M183.3,273.5c0,0-0.1-0.2,0-0.5c0.1-0.5,0.4-1,0.8-1.3c0.6-0.5,1.4-0.6,2.2-0.4c1.2,0.4,1.9,1.7,1.4,2.9
	c-0.2,0.7-0.8,1.2-1.4,1.4c-0.7,0.3-1.6,0.1-2.2-0.4c-0.4-0.3-0.7-0.8-0.8-1.3C183.2,273.7,183.3,273.5,183.3,273.5s0.1,0.2,0.2,0.5
	c0.1,0.4,0.4,0.8,0.8,1c0.5,0.4,1.2,0.4,1.8,0.2c1-0.4,1.4-1.4,1.1-2.4c-0.2-0.5-0.6-0.9-1.1-1.1c-0.6-0.2-1.3-0.1-1.8,0.2
	c-0.4,0.2-0.6,0.6-0.8,1C183.4,273.4,183.3,273.5,183.3,273.5z"/>
<path class="st2" d="M195.5,446.6c0-0.1,36.5,0.3,81.6,1s81.6,1.4,81.6,1.6s-36.5-0.3-81.6-1S195.5,446.7,195.5,446.6z"/>
<g id="freepik--Floor--inject-49">
	<path class="st2" d="M447.1,478.4c0,0.1-89.1,0.3-199.1,0.3s-199.1-0.1-199.1-0.3s89.1-0.3,199.1-0.3S447.1,478.3,447.1,478.4z"/>
</g>
<text transform="matrix(0.9586 -0.4943 0.3706 0.9288 249.9993 275.8456)" class="st2 st9 st10">Empty</text>
</svg>
